<svg width="30" height="30" viewBox="0 0 30 30" fill="none" xmlns="http://www.w3.org/2000/svg">
<rect width="30" height="30" rx="15" fill="#5B93FF"/>
<path fill-rule="evenodd" clip-rule="evenodd" d="M15.2227 8.27778C16.0883 7.44861 17.2478 6.9898 18.4512 7.00017C19.6547 7.01054 20.8059 7.48927 21.6569 8.33323C22.5079 9.1772 22.9906 10.3189 23.0011 11.5124C23.0115 12.7059 22.5489 13.8557 21.7128 14.7142C21.7097 14.7174 21.7066 14.7205 21.7035 14.7236L19.4086 16.9995C19.4086 16.9995 19.4087 16.9995 19.4086 16.9995C18.9433 17.4611 18.3833 17.8181 17.7667 18.0462C17.15 18.2744 16.4911 18.3683 15.8346 18.3217C15.1781 18.2751 14.5394 18.089 13.9618 17.776C13.3842 17.463 12.8813 17.0306 12.4871 16.5079C12.234 16.1724 12.3031 15.6969 12.6414 15.446C12.9797 15.195 13.4591 15.2635 13.7122 15.599C13.975 15.9475 14.3103 16.2358 14.6954 16.4445C15.0804 16.6531 15.5062 16.7772 15.9439 16.8082C16.3816 16.8393 16.8208 16.7767 17.2319 16.6246C17.6431 16.4725 18.0164 16.2345 18.3266 15.9268L20.6167 13.6557C21.1713 13.0838 21.4781 12.3192 21.4712 11.5256C21.4642 10.7299 21.1424 9.96878 20.575 9.40613C20.0077 8.84349 19.2402 8.52434 18.4379 8.51743C17.6374 8.51053 16.866 8.81506 16.2893 9.36557L14.9777 10.6588C14.6781 10.9542 14.1937 10.9528 13.8958 10.6557C13.598 10.3585 13.5994 9.87817 13.899 9.58276L15.2148 8.28546C15.2174 8.28288 15.22 8.28032 15.2227 8.27778Z" fill="#E0DEE8"/>
<path fill-rule="evenodd" clip-rule="evenodd" d="M11.9074 11.9541C12.4855 11.7259 13.1033 11.632 13.7187 11.6786C14.3342 11.7252 14.933 11.9113 15.4744 12.2243C16.0159 12.5373 16.4875 12.9697 16.8571 13.4924C17.0943 13.8279 17.0295 14.3034 16.7123 14.5543C16.3952 14.8053 15.9457 14.7368 15.7085 14.4013C15.4621 14.0528 15.1477 13.7645 14.7867 13.5558C14.4257 13.3472 14.0266 13.2231 13.6163 13.1921C13.206 13.161 12.7941 13.2236 12.4087 13.3757C12.0233 13.5278 11.6733 13.7658 11.3825 14.0735L9.23553 16.3447C8.71556 16.9165 8.42793 17.6811 8.43445 18.4747C8.44099 19.2704 8.74269 20.0315 9.27456 20.5942C9.80644 21.1568 10.5259 21.476 11.2781 21.4829C12.0283 21.4898 12.7511 21.1855 13.2917 20.6355L14.5134 19.3431C14.7935 19.0468 15.2476 19.0468 15.5277 19.3431C15.8077 19.6393 15.8077 20.1197 15.5277 20.416L14.3013 21.7133C14.2984 21.7164 14.2954 21.7195 14.2924 21.7225C13.4808 22.5517 12.3939 23.0105 11.2656 23.0001C10.1374 22.9898 9.05815 22.511 8.26033 21.6671C7.46251 20.8231 7.00997 19.6814 7.00016 18.4879C6.99036 17.2944 7.42408 16.1446 8.20791 15.2861C8.2108 15.2829 8.21371 15.2798 8.21665 15.2767L10.3681 13.0008C10.368 13.0008 10.3681 13.0008 10.3681 13.0008C10.8043 12.5392 11.3293 12.1822 11.9074 11.9541Z" fill="#E0DEE8"/>
</svg>
