<svg width="19" height="19" viewBox="0 0 19 19" fill="none" xmlns="http://www.w3.org/2000/svg">
<path fill-rule="evenodd" clip-rule="evenodd" d="M9.7631 1.51737C10.7911 0.532726 12.1679 -0.0121115 13.597 0.000204339C15.0261 0.0125202 16.3932 0.581004 17.4037 1.58322C18.4143 2.58543 18.9875 3.94118 19 5.35847C19.0124 6.77575 18.463 8.14118 17.4701 9.16066C17.4665 9.16441 17.4628 9.16813 17.4591 9.17182L14.7339 11.8744C14.7339 11.8745 14.734 11.8744 14.7339 11.8744C14.1814 12.4226 13.5163 12.8466 12.7841 13.1174C12.0518 13.3883 11.2693 13.4999 10.4898 13.4445C9.71019 13.3892 8.95173 13.1682 8.26585 12.7965C7.57996 12.4249 6.98269 11.9113 6.51454 11.2906C6.21403 10.8922 6.2961 10.3276 6.69785 10.0296C7.0996 9.73157 7.66889 9.81296 7.9694 10.2114C8.2815 10.6252 8.67968 10.9676 9.13694 11.2153C9.5942 11.4631 10.0998 11.6104 10.6196 11.6473C11.1393 11.6842 11.6609 11.6099 12.1491 11.4293C12.6373 11.2487 13.0806 10.966 13.449 10.6006L16.1685 7.9036C16.8271 7.22453 17.1914 6.31652 17.1832 5.37412C17.1749 4.42926 16.7928 3.52543 16.119 2.85729C15.4453 2.18915 14.534 1.81016 13.5812 1.80195C12.6305 1.79376 11.7146 2.15539 11.0297 2.80912L9.47218 4.34482C9.11639 4.69562 8.54121 4.69396 8.18749 4.34111C7.83376 3.98826 7.83544 3.41784 8.19123 3.06704L9.75371 1.52649C9.75682 1.52343 9.75995 1.52039 9.7631 1.51737Z" fill="#5B93FF"/>
<path fill-rule="evenodd" clip-rule="evenodd" d="M5.82755 5.88289C6.51407 5.61198 7.24764 5.50043 7.97849 5.5558C8.70935 5.61117 9.4204 5.83217 10.0634 6.2038C10.7064 6.57543 11.2664 7.08901 11.7053 7.70969C11.987 8.10811 11.9101 8.6727 11.5334 8.97073C11.1568 9.26875 10.6231 9.18736 10.3413 8.78894C10.0487 8.37515 9.67545 8.03276 9.24677 7.78501C8.81809 7.53725 8.34406 7.38992 7.85682 7.35301C7.36958 7.3161 6.88054 7.39046 6.42286 7.57107C5.96518 7.75167 5.54957 8.03429 5.20422 8.39974L2.6547 11.0967C2.03723 11.7758 1.69568 12.6838 1.70342 13.6262C1.71118 14.5711 2.06944 15.4749 2.70105 16.143C3.33266 16.8112 4.18707 17.1902 5.08026 17.1984C5.97113 17.2066 6.82947 16.8453 7.47142 16.1921L8.92221 14.6574C9.2548 14.3055 9.79403 14.3055 10.1266 14.6574C10.4592 15.0092 10.4592 15.5796 10.1266 15.9314L8.6703 17.472C8.66681 17.4757 8.6633 17.4793 8.65975 17.483C7.69602 18.4676 6.40525 19.0124 5.06546 19.0001C3.72567 18.9878 2.44406 18.4193 1.49664 17.4171C0.549235 16.4149 0.0118356 15.0591 0.000193166 13.6419C-0.0114492 12.2246 0.503596 10.8591 1.4344 9.83967C1.43783 9.83592 1.44129 9.83219 1.44477 9.8285L3.9996 7.1259C3.99956 7.12594 3.99963 7.12586 3.9996 7.1259C4.5176 6.57777 5.14108 6.15377 5.82755 5.88289Z" fill="#5B93FF"/>
</svg>
