<svg width="93" height="93" viewBox="0 0 93 93" fill="none" xmlns="http://www.w3.org/2000/svg">
<path d="M90.273 0.0087256H16.5884C14.2956 0.0087256 12.1724 1.23467 11.0282 3.22847L0.882178 20.8455C0.751655 21.0767 0.634185 21.3079 0.534117 21.5479C-0.231618 23.1185 -0.18811 25.6794 0.756006 27.0494C0.795163 27.1279 0.838671 27.2064 0.882178 27.2806L11.5546 45.8181C12.49 47.4411 14.2173 48.4402 16.0838 48.4402H32.3426C34.6137 48.4402 36.0364 50.9051 34.9008 52.8815L32.6776 56.7426L28.4312 64.1157L28.0223 64.8268L27.5219 65.695L26.8302 66.8948C25.8556 68.5832 25.8556 70.6643 26.8302 72.3527L29.2883 76.6238L34.1351 85.044L37.7767 91.3657C38.7426 93.0454 41.1616 93.0454 42.1318 91.3657L50.8681 76.1919C50.916 76.109 50.9552 76.0218 50.9856 75.9302L53.8963 70.8562C53.9746 70.7602 54.0529 70.6643 54.1138 70.5552L65.2213 51.2629C65.4563 50.8571 65.5215 50.4209 65.4563 50.0151C65.3605 49.1469 64.6427 48.3922 63.6594 48.3922H41.192C38.8861 48.3922 36.7543 47.1575 35.6013 45.155L31.8727 38.6806C31.8205 38.589 31.7639 38.5061 31.703 38.4232L29.1056 34.0342C29.0926 33.912 29.0577 33.7942 28.9925 33.6764L25.8556 28.2229L24.5765 25.9412C24.1544 24.7807 25.0028 23.4849 26.2994 23.4849H79.7224C80.6448 23.4849 81.4932 22.9919 81.9544 22.1936L86.6271 14.0744C86.6924 13.9566 86.7315 13.8388 86.7402 13.7166L88.7111 10.4489L92.4963 3.87853C93.4883 2.15522 92.2483 0 90.2643 0L90.273 0.0087256Z" fill="rgba(255,118,118,255)"/>
</svg>