<svg width="32" height="30" viewBox="0 0 32 30" fill="none" xmlns="http://www.w3.org/2000/svg">
<path d="M31.7656 21.2831L31.7656 8.71305C31.7656 6.47805 31.1939 4.6182 30.098 3.19305C29.6374 2.56305 29.0497 2.0082 28.3827 1.57305C27.0803 0.67305 25.4286 0.1482 23.475 0.0282013L23.475 29.9531C28.6844 29.6381 31.7656 26.4431 31.7656 21.2831Z" fill="#5B93FF"/>
<path d="M1.66768 26.805C2.12827 27.435 2.71591 27.99 3.38297 28.425C4.8918 29.46 6.86121 30 9.22768 30L21.0918 30L21.0918 0L9.22768 -1.03719e-06C3.44651 -1.5426e-06 3.4763e-05 3.255 3.42857e-05 8.715L3.31868e-05 21.285C3.29914e-05 23.52 0.571797 25.38 1.66768 26.805ZM10.3236 11.955C9.86298 11.52 9.86298 10.8 10.3236 10.365C10.5618 10.14 10.8636 10.035 11.1653 10.035C11.4671 10.035 11.7689 10.14 12.0071 10.365L16.073 14.205C16.5336 14.64 16.5336 15.36 16.073 15.795L12.0071 19.635C11.5465 20.07 10.7842 20.07 10.3236 19.635C9.86298 19.2 9.86298 18.48 10.3236 18.045L13.5318 15L10.3236 11.955Z" fill="#5B93FF"/>
</svg>
